<?xml version="1.0" encoding="UTF-8" standalone="no"?>
<!DOCTYPE svg PUBLIC "-//W3C//DTD SVG 1.1//EN"
 "http://www.w3.org/Graphics/SVG/1.1/DTD/svg11.dtd">
<!-- Generated by graphviz version 14.0.4 (0)
 -->
<!-- Pages: 1 -->
<svg width="2973pt" height="1009pt"
 viewBox="0.00 0.00 2973.00 1009.00" xmlns="http://www.w3.org/2000/svg" xmlns:xlink="http://www.w3.org/1999/xlink">
<g id="graph0" class="graph" transform="scale(1 1) rotate(0) translate(4 1004.91)">
<polygon fill="white" stroke="none" points="-4,4 -4,-1004.91 2969.35,-1004.91 2969.35,4 -4,4"/>
<!-- 0 -->
<g id="node1" class="node">
<title>0</title>
<polygon fill="none" stroke="black" points="219.41,-711.46 59.41,-711.46 59.41,-675.46 219.41,-675.46 219.41,-711.46"/>
<text xml:space="preserve" text-anchor="middle" x="139.41" y="-689.91" font-family="Times,serif" font-size="14.00">embassy&#45;preempt&#45;log</text>
</g>
<!-- 1 -->
<g id="node2" class="node">
<title>1</title>
<polygon fill="none" stroke="black" points="409.78,-636.57 225.03,-636.57 225.03,-600.57 409.78,-600.57 409.78,-636.57"/>
<text xml:space="preserve" text-anchor="middle" x="317.41" y="-615.02" font-family="Times,serif" font-size="14.00">embassy&#45;preempt&#45;structs</text>
</g>
<!-- 2 -->
<g id="node3" class="node">
<title>2</title>
<polygon fill="none" stroke="black" points="844.91,-928.91 645.91,-928.91 645.91,-892.91 844.91,-892.91 844.91,-928.91"/>
<text xml:space="preserve" text-anchor="middle" x="745.41" y="-907.36" font-family="Times,serif" font-size="14.00">embassy&#45;preempt&#45;executor</text>
</g>
<!-- 4 -->
<g id="node5" class="node">
<title>4</title>
<polygon fill="none" stroke="black" points="832.53,-856.91 658.28,-856.91 658.28,-820.91 832.53,-820.91 832.53,-856.91"/>
<text xml:space="preserve" text-anchor="middle" x="745.41" y="-835.36" font-family="Times,serif" font-size="14.00">embassy&#45;preempt&#45;mem</text>
</g>
<!-- 2&#45;&gt;4 -->
<g id="edge1" class="edge">
<title>2&#45;&gt;4</title>
<path fill="none" stroke="black" d="M745.41,-892.61C745.41,-885.32 745.41,-876.64 745.41,-868.44"/>
<polygon fill="black" stroke="black" points="748.91,-868.53 745.41,-858.53 741.91,-868.53 748.91,-868.53"/>
</g>
<!-- 3 -->
<g id="node4" class="node">
<title>3</title>
<polygon fill="none" stroke="black" points="397.03,-711.46 237.78,-711.46 237.78,-675.46 397.03,-675.46 397.03,-711.46"/>
<text xml:space="preserve" text-anchor="middle" x="317.41" y="-689.91" font-family="Times,serif" font-size="14.00">embassy&#45;preempt&#45;cfg</text>
</g>
<!-- 3&#45;&gt;1 -->
<g id="edge2" class="edge">
<title>3&#45;&gt;1</title>
<path fill="none" stroke="black" d="M317.41,-675.19C317.41,-667.17 317.41,-657.42 317.41,-648.33"/>
<polygon fill="black" stroke="black" points="320.91,-648.49 317.41,-638.49 313.91,-648.49 320.91,-648.49"/>
</g>
<!-- 9 -->
<g id="node10" class="node">
<title>9</title>
<ellipse fill="none" stroke="black" cx="151.41" cy="-618.57" rx="30.94" ry="19.45"/>
<text xml:space="preserve" text-anchor="middle" x="151.41" y="-615.02" font-family="Times,serif" font-size="14.00">spin</text>
</g>
<!-- 3&#45;&gt;9 -->
<g id="edge3" class="edge">
<title>3&#45;&gt;9</title>
<path fill="none" stroke="black" d="M277.65,-675C250,-662.86 213.46,-646.82 186.81,-635.12"/>
<polygon fill="black" stroke="black" points="188.36,-631.98 177.8,-631.16 185.55,-638.39 188.36,-631.98"/>
</g>
<!-- 5 -->
<g id="node6" class="node">
<title>5</title>
<polygon fill="none" stroke="black" points="845.28,-784.91 645.53,-784.91 645.53,-748.91 845.28,-748.91 845.28,-784.91"/>
<text xml:space="preserve" text-anchor="middle" x="745.41" y="-763.36" font-family="Times,serif" font-size="14.00">embassy&#45;preempt&#45;platform</text>
</g>
<!-- 4&#45;&gt;5 -->
<g id="edge4" class="edge">
<title>4&#45;&gt;5</title>
<path fill="none" stroke="black" d="M745.41,-820.61C745.41,-813.32 745.41,-804.64 745.41,-796.44"/>
<polygon fill="black" stroke="black" points="748.91,-796.53 745.41,-786.53 741.91,-796.53 748.91,-796.53"/>
</g>
<!-- 5&#45;&gt;0 -->
<g id="edge7" class="edge">
<title>5&#45;&gt;0</title>
<path fill="none" stroke="black" d="M645.43,-758.71C543.55,-750.67 380.82,-735.93 231.09,-713.24"/>
<polygon fill="black" stroke="black" points="231.78,-709.81 221.37,-711.75 230.72,-716.73 231.78,-709.81"/>
</g>
<!-- 5&#45;&gt;3 -->
<g id="edge6" class="edge">
<title>5&#45;&gt;3</title>
<path fill="none" stroke="black" d="M645.13,-751.68C580.15,-742.12 493.42,-728.76 408.61,-713.45"/>
<polygon fill="black" stroke="black" points="409.42,-710.04 398.96,-711.7 408.17,-716.93 409.42,-710.04"/>
</g>
<!-- 12 -->
<g id="node13" class="node">
<title>12</title>
<ellipse fill="none" stroke="black" stroke-dasharray="5,2" cx="529.41" cy="-693.46" rx="114.73" ry="19.45"/>
<text xml:space="preserve" text-anchor="middle" x="529.41" y="-689.91" font-family="Times,serif" font-size="14.00">cortex&#45;m&#45;semihosting</text>
</g>
<!-- 5&#45;&gt;12 -->
<g id="edge5" class="edge">
<title>5&#45;&gt;12</title>
<path fill="none" stroke="black" stroke-dasharray="1,5" d="M692.57,-748.43C661.82,-738.26 622.92,-725.4 590.82,-714.78"/>
<polygon fill="black" stroke="black" points="592.24,-711.56 581.65,-711.74 590.05,-718.21 592.24,-711.56"/>
</g>
<!-- 16 -->
<g id="node17" class="node">
<title>16</title>
<ellipse fill="none" stroke="black" cx="1875.41" cy="-693.46" rx="59.57" ry="19.45"/>
<text xml:space="preserve" text-anchor="middle" x="1875.41" y="-689.91" font-family="Times,serif" font-size="14.00">panic&#45;halt</text>
</g>
<!-- 5&#45;&gt;16 -->
<g id="edge8" class="edge">
<title>5&#45;&gt;16</title>
<path fill="none" stroke="black" d="M845.61,-763.66C1073.3,-758.1 1624.06,-742 1807.41,-712.91 1812.1,-712.16 1816.93,-711.22 1821.75,-710.16"/>
<polygon fill="black" stroke="black" points="1822.52,-713.57 1831.44,-707.85 1820.9,-706.76 1822.52,-713.57"/>
</g>
<!-- 17 -->
<g id="node18" class="node">
<title>17</title>
<ellipse fill="none" stroke="black" stroke-dasharray="5,2" cx="914.41" cy="-693.46" rx="68.06" ry="19.45"/>
<text xml:space="preserve" text-anchor="middle" x="914.41" y="-689.91" font-family="Times,serif" font-size="14.00">panic&#45;probe</text>
</g>
<!-- 5&#45;&gt;17 -->
<g id="edge9" class="edge">
<title>5&#45;&gt;17</title>
<path fill="none" stroke="black" stroke-dasharray="1,5" d="M786.75,-748.43C810.95,-738.2 841.6,-725.24 866.8,-714.59"/>
<polygon fill="black" stroke="black" points="867.99,-717.88 875.84,-710.77 865.27,-711.44 867.99,-717.88"/>
</g>
<!-- 18 -->
<g id="node19" class="node">
<title>18</title>
<ellipse fill="none" stroke="black" stroke-dasharray="5,2" cx="745.41" cy="-693.46" rx="83.44" ry="19.45"/>
<text xml:space="preserve" text-anchor="middle" x="745.41" y="-689.91" font-family="Times,serif" font-size="14.00">stm32&#45;metapac</text>
</g>
<!-- 5&#45;&gt;18 -->
<g id="edge10" class="edge">
<title>5&#45;&gt;18</title>
<path fill="none" stroke="black" stroke-dasharray="1,5" d="M745.41,-748.61C745.41,-741.46 745.41,-732.94 745.41,-724.8"/>
<polygon fill="black" stroke="black" points="748.91,-724.87 745.41,-714.87 741.91,-724.87 748.91,-724.87"/>
</g>
<!-- 19 -->
<g id="node20" class="node">
<title>19</title>
<ellipse fill="none" stroke="black" stroke-dasharray="5,2" cx="1719.41" cy="-693.46" rx="78.67" ry="19.45"/>
<text xml:space="preserve" text-anchor="middle" x="1719.41" y="-689.91" font-family="Times,serif" font-size="14.00">stm32f4xx&#45;hal</text>
</g>
<!-- 5&#45;&gt;19 -->
<g id="edge11" class="edge">
<title>5&#45;&gt;19</title>
<path fill="none" stroke="black" stroke-dasharray="1,5" d="M845.52,-758.57C1037.28,-744.5 1453.34,-713.98 1633.44,-700.77"/>
<polygon fill="black" stroke="black" points="1633.47,-704.28 1643.19,-700.05 1632.96,-697.3 1633.47,-704.28"/>
</g>
<!-- 6 -->
<g id="node7" class="node">
<title>6</title>
<polygon fill="none" stroke="black" points="834.03,-1000.91 656.78,-1000.91 656.78,-964.91 834.03,-964.91 834.03,-1000.91"/>
<text xml:space="preserve" text-anchor="middle" x="745.41" y="-979.36" font-family="Times,serif" font-size="14.00">embassy&#45;preempt&#45;event</text>
</g>
<!-- 6&#45;&gt;2 -->
<g id="edge12" class="edge">
<title>6&#45;&gt;2</title>
<path fill="none" stroke="black" d="M745.41,-964.61C745.41,-957.32 745.41,-948.64 745.41,-940.44"/>
<polygon fill="black" stroke="black" points="748.91,-940.53 745.41,-930.53 741.91,-940.53 748.91,-940.53"/>
</g>
<!-- 7 -->
<g id="node8" class="node">
<title>7</title>
<polygon fill="none" stroke="#00cd00" points="823.03,-636.57 633.78,-636.57 633.78,-600.57 823.03,-600.57 823.03,-636.57"/>
<text xml:space="preserve" text-anchor="middle" x="728.41" y="-615.02" font-family="Times,serif" font-size="14.00">embassy&#45;preempt&#45;macros</text>
</g>
<!-- 11 -->
<g id="node12" class="node">
<title>11</title>
<ellipse fill="none" stroke="darkgreen" cx="728.41" cy="-543.68" rx="65.94" ry="19.45"/>
<text xml:space="preserve" text-anchor="middle" x="728.41" y="-540.13" font-family="Times,serif" font-size="14.00">cortex&#45;m&#45;rt</text>
</g>
<!-- 7&#45;&gt;11 -->
<g id="edge13" class="edge">
<title>7&#45;&gt;11</title>
<path fill="none" stroke="#00cd00" d="M728.41,-600.3C728.41,-592.72 728.41,-583.58 728.41,-574.93"/>
<polygon fill="lightgrey" stroke="#00cd00" points="731.91,-575.14 728.41,-565.14 724.91,-575.14 731.91,-575.14"/>
</g>
<!-- 8 -->
<g id="node9" class="node">
<title>8</title>
<ellipse fill="none" stroke="black" cx="723.41" cy="-468.79" rx="81.32" ry="19.45"/>
<text xml:space="preserve" text-anchor="middle" x="723.41" y="-465.24" font-family="Times,serif" font-size="14.00">critical&#45;section</text>
</g>
<!-- 23 -->
<g id="node24" class="node">
<title>23</title>
<ellipse fill="none" stroke="black" stroke-dasharray="5,2" cx="101.41" cy="-543.68" rx="50.56" ry="19.45"/>
<text xml:space="preserve" text-anchor="middle" x="101.41" y="-540.13" font-family="Times,serif" font-size="14.00">lock_api</text>
</g>
<!-- 9&#45;&gt;23 -->
<g id="edge14" class="edge">
<title>9&#45;&gt;23</title>
<path fill="none" stroke="black" stroke-dasharray="1,5" d="M139.56,-600.3C133.81,-591.92 126.78,-581.66 120.31,-572.24"/>
<polygon fill="black" stroke="black" points="123.27,-570.36 114.73,-564.1 117.5,-574.32 123.27,-570.36"/>
</g>
<!-- 10 -->
<g id="node11" class="node">
<title>10</title>
<ellipse fill="none" stroke="black" stroke-dasharray="5,2" cx="579.41" cy="-543.68" rx="54.27" ry="19.45"/>
<text xml:space="preserve" text-anchor="middle" x="579.41" y="-540.13" font-family="Times,serif" font-size="14.00">cortex&#45;m</text>
</g>
<!-- 10&#45;&gt;8 -->
<g id="edge17" class="edge">
<title>10&#45;&gt;8</title>
<path fill="none" stroke="black" stroke-dasharray="1,5" d="M609.95,-527.22C630.21,-516.97 657.11,-503.35 679.64,-491.95"/>
<polygon fill="black" stroke="black" points="680.95,-495.21 688.29,-487.57 677.79,-488.96 680.95,-495.21"/>
</g>
<!-- 24 -->
<g id="node25" class="node">
<title>24</title>
<ellipse fill="none" stroke="black" stroke-dasharray="5,2" cx="236.41" cy="-468.79" rx="87.68" ry="19.45"/>
<text xml:space="preserve" text-anchor="middle" x="236.41" y="-465.24" font-family="Times,serif" font-size="14.00">bare&#45;metal 0.2.5</text>
</g>
<!-- 10&#45;&gt;24 -->
<g id="edge15" class="edge">
<title>10&#45;&gt;24</title>
<path fill="none" stroke="black" stroke-dasharray="5,2" d="M533.5,-532.93C476.09,-520.73 377.12,-499.69 309.3,-485.28"/>
<polygon fill="black" stroke="black" points="310.27,-481.91 299.76,-483.25 308.81,-488.76 310.27,-481.91"/>
</g>
<!-- 25 -->
<g id="node26" class="node">
<title>25</title>
<ellipse fill="none" stroke="black" stroke-dasharray="5,2" cx="579.41" cy="-468.79" rx="44.72" ry="19.45"/>
<text xml:space="preserve" text-anchor="middle" x="579.41" y="-465.24" font-family="Times,serif" font-size="14.00">bitfield</text>
</g>
<!-- 10&#45;&gt;25 -->
<g id="edge16" class="edge">
<title>10&#45;&gt;25</title>
<path fill="none" stroke="black" stroke-dasharray="5,2" d="M579.41,-523.91C579.41,-516.6 579.41,-508.03 579.41,-499.9"/>
<polygon fill="black" stroke="black" points="582.91,-500.01 579.41,-490.01 575.91,-500.01 582.91,-500.01"/>
</g>
<!-- 26 -->
<g id="node27" class="node">
<title>26</title>
<ellipse fill="none" stroke="black" stroke-dasharray="5,2" cx="925.41" cy="-468.79" rx="102.53" ry="19.45"/>
<text xml:space="preserve" text-anchor="middle" x="925.41" y="-465.24" font-family="Times,serif" font-size="14.00">embedded&#45;hal 0.2.7</text>
</g>
<!-- 10&#45;&gt;26 -->
<g id="edge18" class="edge">
<title>10&#45;&gt;26</title>
<path fill="none" stroke="black" stroke-dasharray="5,2" d="M622.76,-531.52C632.8,-529.03 643.46,-526.47 653.41,-524.24 716.8,-510 788.91,-495.65 842.95,-485.26"/>
<polygon fill="black" stroke="black" points="843.55,-488.71 852.71,-483.39 842.23,-481.83 843.55,-488.71"/>
</g>
<!-- 27 -->
<g id="node28" class="node">
<title>27</title>
<ellipse fill="none" stroke="black" stroke-dasharray="5,2" cx="429.41" cy="-468.79" rx="87.15" ry="19.45"/>
<text xml:space="preserve" text-anchor="middle" x="429.41" y="-465.24" font-family="Times,serif" font-size="14.00">volatile&#45;register</text>
</g>
<!-- 10&#45;&gt;27 -->
<g id="edge19" class="edge">
<title>10&#45;&gt;27</title>
<path fill="none" stroke="black" stroke-dasharray="5,2" d="M547.96,-527.4C526.78,-517.11 498.52,-503.37 474.89,-491.89"/>
<polygon fill="black" stroke="black" points="476.64,-488.85 466.11,-487.63 473.58,-495.15 476.64,-488.85"/>
</g>
<!-- 28 -->
<g id="node29" class="node">
<title>28</title>
<ellipse fill="none" stroke="#00cd00" cx="1056.41" cy="-393.9" rx="104.12" ry="19.45"/>
<text xml:space="preserve" text-anchor="middle" x="1056.41" y="-390.35" font-family="Times,serif" font-size="14.00">cortex&#45;m&#45;rt&#45;macros</text>
</g>
<!-- 11&#45;&gt;28 -->
<g id="edge20" class="edge">
<title>11&#45;&gt;28</title>
<path fill="none" stroke="#00cd00" d="M776.68,-530.14C785.54,-528.03 794.73,-525.97 803.41,-524.24 855,-513.94 999.32,-524.53 1037.41,-488.24 1054.22,-472.21 1058.3,-445.68 1058.57,-424.99"/>
<polygon fill="#00cd00" stroke="#00cd00" points="1062.07,-425.05 1058.37,-415.12 1055.07,-425.19 1062.07,-425.05"/>
</g>
<!-- 12&#45;&gt;10 -->
<g id="edge21" class="edge">
<title>12&#45;&gt;10</title>
<path fill="none" stroke="black" stroke-dasharray="5,2" d="M533.14,-673.55C537.17,-654.46 544.26,-624.29 553.41,-599.13 556.54,-590.5 560.58,-581.4 564.53,-573.17"/>
<polygon fill="black" stroke="black" points="567.62,-574.82 568.92,-564.3 561.34,-571.71 567.62,-574.82"/>
</g>
<!-- 13 -->
<g id="node14" class="node">
<title>13</title>
<ellipse fill="none" stroke="black" stroke-dasharray="5,2" cx="995.41" cy="-618.57" rx="39.42" ry="19.45"/>
<text xml:space="preserve" text-anchor="middle" x="995.41" y="-615.02" font-family="Times,serif" font-size="14.00">defmt</text>
</g>
<!-- 29 -->
<g id="node30" class="node">
<title>29</title>
<ellipse fill="none" stroke="black" stroke-dasharray="5,2" cx="1051.41" cy="-543.68" rx="45.79" ry="19.45"/>
<text xml:space="preserve" text-anchor="middle" x="1051.41" y="-540.13" font-family="Times,serif" font-size="14.00">bitflags</text>
</g>
<!-- 13&#45;&gt;29 -->
<g id="edge22" class="edge">
<title>13&#45;&gt;29</title>
<path fill="none" stroke="black" stroke-dasharray="5,2" d="M1008.96,-599.93C1015.47,-591.46 1023.41,-581.12 1030.65,-571.7"/>
<polygon fill="black" stroke="black" points="1033.35,-573.93 1036.67,-563.87 1027.8,-569.67 1033.35,-573.93"/>
</g>
<!-- 30 -->
<g id="node31" class="node">
<title>30</title>
<ellipse fill="none" stroke="#00cd00" stroke-dasharray="5,2" cx="1203.41" cy="-543.68" rx="77.6" ry="19.45"/>
<text xml:space="preserve" text-anchor="middle" x="1203.41" y="-540.13" font-family="Times,serif" font-size="14.00">defmt&#45;macros</text>
</g>
<!-- 13&#45;&gt;30 -->
<g id="edge23" class="edge">
<title>13&#45;&gt;30</title>
<path fill="none" stroke="#00cd00" stroke-dasharray="5,2" d="M1025.81,-605.68C1031.64,-603.46 1037.7,-601.19 1043.41,-599.13 1077.71,-586.7 1116.44,-573.51 1147.2,-563.21"/>
<polygon fill="#00cd00" stroke="#00cd00" points="1147.91,-566.67 1156.29,-560.18 1145.7,-560.03 1147.91,-566.67"/>
</g>
<!-- 14 -->
<g id="node15" class="node">
<title>14</title>
<ellipse fill="none" stroke="black" cx="1798.41" cy="-543.68" rx="102.53" ry="19.45"/>
<text xml:space="preserve" text-anchor="middle" x="1798.41" y="-540.13" font-family="Times,serif" font-size="14.00">embedded&#45;hal 1.0.0</text>
</g>
<!-- 15 -->
<g id="node16" class="node">
<title>15</title>
<ellipse fill="none" stroke="black" cx="1929.41" cy="-319.01" rx="47.38" ry="19.45"/>
<text xml:space="preserve" text-anchor="middle" x="1929.41" y="-315.46" font-family="Times,serif" font-size="14.00">nb 1.1.0</text>
</g>
<!-- 17&#45;&gt;10 -->
<g id="edge24" class="edge">
<title>17&#45;&gt;10</title>
<path fill="none" stroke="black" stroke-dasharray="5,2" d="M864.4,-679.96C855.44,-677.87 846.16,-675.8 837.41,-674.02 743.34,-654.82 701.16,-695.7 624.41,-638.02 603.9,-622.61 592.28,-595.41 586,-574.33"/>
<polygon fill="black" stroke="black" points="589.42,-573.57 583.44,-564.83 582.67,-575.39 589.42,-573.57"/>
</g>
<!-- 17&#45;&gt;13 -->
<g id="edge25" class="edge">
<title>17&#45;&gt;13</title>
<path fill="none" stroke="black" stroke-dasharray="1,5" d="M934.43,-674.45C944.71,-665.2 957.37,-653.8 968.49,-643.8"/>
<polygon fill="black" stroke="black" points="970.78,-646.44 975.88,-637.15 966.1,-641.24 970.78,-646.44"/>
</g>
<!-- 18&#45;&gt;10 -->
<g id="edge26" class="edge">
<title>18&#45;&gt;10</title>
<path fill="none" stroke="black" stroke-dasharray="5,2" d="M688.11,-678.9C649.73,-668.61 604.01,-653.63 591.41,-638.02 577.23,-620.46 574.86,-594.68 575.68,-574.66"/>
<polygon fill="black" stroke="black" points="579.16,-575.09 576.39,-564.87 572.17,-574.59 579.16,-575.09"/>
</g>
<!-- 31 -->
<g id="node32" class="node">
<title>31</title>
<ellipse fill="none" stroke="black" stroke-dasharray="5,2" cx="1508.41" cy="-618.57" rx="87.68" ry="19.45"/>
<text xml:space="preserve" text-anchor="middle" x="1508.41" y="-615.02" font-family="Times,serif" font-size="14.00">bare&#45;metal 1.0.0</text>
</g>
<!-- 19&#45;&gt;31 -->
<g id="edge27" class="edge">
<title>19&#45;&gt;31</title>
<path fill="none" stroke="black" stroke-dasharray="5,2" d="M1674.92,-677.09C1643.06,-666.09 1599.89,-651.18 1565.5,-639.29"/>
<polygon fill="black" stroke="black" points="1566.69,-636 1556.09,-636.05 1564.4,-642.62 1566.69,-636"/>
</g>
<!-- 32 -->
<g id="node33" class="node">
<title>32</title>
<ellipse fill="none" stroke="#00cd00" stroke-dasharray="5,2" cx="2313.41" cy="-618.57" rx="101.47" ry="19.45"/>
<text xml:space="preserve" text-anchor="middle" x="2313.41" y="-615.02" font-family="Times,serif" font-size="14.00">document&#45;features</text>
</g>
<!-- 19&#45;&gt;32 -->
<g id="edge28" class="edge">
<title>19&#45;&gt;32</title>
<path fill="none" stroke="#00cd00" stroke-dasharray="5,2" d="M1775.86,-679.48C1785.99,-677.44 1796.48,-675.52 1806.41,-674.02 1981.15,-647.64 2027.12,-660.52 2202.41,-638.02 2211.22,-636.89 2220.41,-635.57 2229.56,-634.18"/>
<polygon fill="#00cd00" stroke="#00cd00" points="2229.84,-637.68 2239.18,-632.68 2228.76,-630.76 2229.84,-637.68"/>
</g>
<!-- 33 -->
<g id="node34" class="node">
<title>33</title>
<ellipse fill="none" stroke="black" stroke-dasharray="5,2" cx="2517.41" cy="-618.57" rx="84.5" ry="19.45"/>
<text xml:space="preserve" text-anchor="middle" x="2517.41" y="-615.02" font-family="Times,serif" font-size="14.00">embedded&#45;dma</text>
</g>
<!-- 19&#45;&gt;33 -->
<g id="edge29" class="edge">
<title>19&#45;&gt;33</title>
<path fill="none" stroke="black" stroke-dasharray="5,2" d="M1774.88,-679.4C1785.31,-677.32 1796.15,-675.4 1806.41,-674.02 2078.65,-637.43 2150.9,-672.54 2423.41,-638.02 2430.78,-637.08 2438.44,-635.91 2446.07,-634.62"/>
<polygon fill="black" stroke="black" points="2446.45,-638.11 2455.69,-632.91 2445.23,-631.21 2446.45,-638.11"/>
</g>
<!-- 34 -->
<g id="node35" class="node">
<title>34</title>
<ellipse fill="none" stroke="black" stroke-dasharray="5,2" cx="1792.41" cy="-618.57" rx="94.05" ry="19.45"/>
<text xml:space="preserve" text-anchor="middle" x="1792.41" y="-615.02" font-family="Times,serif" font-size="14.00">embedded&#45;hal&#45;nb</text>
</g>
<!-- 19&#45;&gt;34 -->
<g id="edge30" class="edge">
<title>19&#45;&gt;34</title>
<path fill="none" stroke="black" stroke-dasharray="5,2" d="M1737.83,-674.07C1746.39,-665.52 1756.72,-655.21 1766.08,-645.86"/>
<polygon fill="black" stroke="black" points="1768.32,-648.57 1772.92,-639.03 1763.37,-643.62 1768.32,-648.57"/>
</g>
<!-- 35 -->
<g id="node36" class="node">
<title>35</title>
<ellipse fill="none" stroke="black" stroke-dasharray="5,2" cx="2121.41" cy="-618.57" rx="72.3" ry="19.45"/>
<text xml:space="preserve" text-anchor="middle" x="2121.41" y="-615.02" font-family="Times,serif" font-size="14.00">embedded&#45;io</text>
</g>
<!-- 19&#45;&gt;35 -->
<g id="edge31" class="edge">
<title>19&#45;&gt;35</title>
<path fill="none" stroke="black" stroke-dasharray="5,2" d="M1776.88,-679.81C1786.71,-677.78 1796.84,-675.77 1806.41,-674.02 1909.48,-655.14 1936.46,-657.53 2039.41,-638.02 2045.23,-636.91 2051.27,-635.7 2057.31,-634.43"/>
<polygon fill="black" stroke="black" points="2057.62,-637.94 2066.66,-632.42 2056.15,-631.1 2057.62,-637.94"/>
</g>
<!-- 36 -->
<g id="node37" class="node">
<title>36</title>
<ellipse fill="none" stroke="black" stroke-dasharray="5,2" cx="2717.41" cy="-618.57" rx="97.76" ry="19.45"/>
<text xml:space="preserve" text-anchor="middle" x="2717.41" y="-615.02" font-family="Times,serif" font-size="14.00">embedded&#45;storage</text>
</g>
<!-- 19&#45;&gt;36 -->
<g id="edge32" class="edge">
<title>19&#45;&gt;36</title>
<path fill="none" stroke="black" stroke-dasharray="5,2" d="M1774.87,-679.29C1785.3,-677.21 1796.15,-675.33 1806.41,-674.02 2161.23,-628.77 2254.79,-676.48 2610.41,-638.02 2619.1,-637.08 2628.16,-635.87 2637.17,-634.53"/>
<polygon fill="black" stroke="black" points="2637.68,-637.99 2647.02,-632.99 2636.6,-631.07 2637.68,-637.99"/>
</g>
<!-- 37 -->
<g id="node38" class="node">
<title>37</title>
<ellipse fill="none" stroke="black" stroke-dasharray="5,2" cx="2899.41" cy="-618.57" rx="65.94" ry="19.45"/>
<text xml:space="preserve" text-anchor="middle" x="2899.41" y="-615.02" font-family="Times,serif" font-size="14.00">enumflags2</text>
</g>
<!-- 19&#45;&gt;37 -->
<g id="edge33" class="edge">
<title>19&#45;&gt;37</title>
<path fill="none" stroke="black" stroke-dasharray="5,2" d="M1774.39,-679.3C1784.96,-677.2 1795.99,-675.3 1806.41,-674.02 2255.76,-618.86 2376,-700.41 2824.41,-638.02 2829.99,-637.24 2835.76,-636.22 2841.51,-635.06"/>
<polygon fill="black" stroke="black" points="2841.98,-638.54 2851.01,-633 2840.49,-631.7 2841.98,-638.54"/>
</g>
<!-- 39 -->
<g id="node40" class="node">
<title>39</title>
<ellipse fill="none" stroke="black" stroke-dasharray="5,2" cx="1967.41" cy="-618.57" rx="63.29" ry="19.45"/>
<text xml:space="preserve" text-anchor="middle" x="1967.41" y="-615.02" font-family="Times,serif" font-size="14.00">fugit&#45;timer</text>
</g>
<!-- 19&#45;&gt;39 -->
<g id="edge34" class="edge">
<title>19&#45;&gt;39</title>
<path fill="none" stroke="black" stroke-dasharray="5,2" d="M1768.7,-677.98C1810.02,-665.83 1868.99,-648.5 1911.96,-635.87"/>
<polygon fill="black" stroke="black" points="1912.73,-639.29 1921.34,-633.11 1910.76,-632.58 1912.73,-639.29"/>
</g>
<!-- 40 -->
<g id="node41" class="node">
<title>40</title>
<ellipse fill="none" stroke="black" stroke-dasharray="5,2" cx="1135.41" cy="-618.57" rx="82.91" ry="19.45"/>
<text xml:space="preserve" text-anchor="middle" x="1135.41" y="-615.02" font-family="Times,serif" font-size="14.00">rand_core 0.6.4</text>
</g>
<!-- 19&#45;&gt;40 -->
<g id="edge35" class="edge">
<title>19&#45;&gt;40</title>
<path fill="none" stroke="black" stroke-dasharray="5,2" d="M1645.79,-686.35C1549.36,-677.87 1375.17,-660.96 1227.41,-638.02 1220.54,-636.95 1213.41,-635.73 1206.29,-634.43"/>
<polygon fill="black" stroke="black" points="1207.11,-631.02 1196.64,-632.62 1205.82,-637.9 1207.11,-631.02"/>
</g>
<!-- 41 -->
<g id="node42" class="node">
<title>41</title>
<ellipse fill="none" stroke="black" stroke-dasharray="5,2" cx="1319.41" cy="-618.57" rx="82.91" ry="19.45"/>
<text xml:space="preserve" text-anchor="middle" x="1319.41" y="-615.02" font-family="Times,serif" font-size="14.00">rand_core 0.9.3</text>
</g>
<!-- 19&#45;&gt;41 -->
<g id="edge36" class="edge">
<title>19&#45;&gt;41</title>
<path fill="none" stroke="black" stroke-dasharray="5,2" d="M1655.92,-681.68C1593.59,-670.99 1495.85,-653.94 1411.41,-638.02 1405.05,-636.82 1398.45,-635.55 1391.84,-634.26"/>
<polygon fill="black" stroke="black" points="1392.71,-630.86 1382.22,-632.36 1391.35,-637.73 1392.71,-630.86"/>
</g>
<!-- 42 -->
<g id="node43" class="node">
<title>42</title>
<ellipse fill="none" stroke="black" stroke-dasharray="5,2" cx="889.41" cy="-618.57" rx="48.44" ry="19.45"/>
<text xml:space="preserve" text-anchor="middle" x="889.41" y="-615.02" font-family="Times,serif" font-size="14.00">stm32f4</text>
</g>
<!-- 19&#45;&gt;42 -->
<g id="edge37" class="edge">
<title>19&#45;&gt;42</title>
<path fill="none" stroke="black" stroke-dasharray="5,2" d="M1640.54,-693.04C1499.94,-692.72 1197.31,-685.86 947.41,-638.02 943.55,-637.28 939.6,-636.37 935.65,-635.35"/>
<polygon fill="black" stroke="black" points="936.68,-632 926.1,-632.66 934.78,-638.74 936.68,-632"/>
</g>
<!-- 43 -->
<g id="node44" class="node">
<title>43</title>
<ellipse fill="none" stroke="black" stroke-dasharray="5,2" cx="1647.41" cy="-618.57" rx="33.06" ry="19.45"/>
<text xml:space="preserve" text-anchor="middle" x="1647.41" y="-615.02" font-family="Times,serif" font-size="14.00">time</text>
</g>
<!-- 19&#45;&gt;43 -->
<g id="edge38" class="edge">
<title>19&#45;&gt;43</title>
<path fill="none" stroke="black" stroke-dasharray="5,2" d="M1701.24,-674.07C1692.13,-664.84 1680.97,-653.55 1671.19,-643.65"/>
<polygon fill="black" stroke="black" points="1673.95,-641.46 1664.43,-636.8 1668.97,-646.38 1673.95,-641.46"/>
</g>
<!-- 20 -->
<g id="node21" class="node">
<title>20</title>
<ellipse fill="none" stroke="#00cd00" cx="1414.41" cy="-94.34" rx="71.77" ry="19.45"/>
<text xml:space="preserve" text-anchor="middle" x="1414.41" y="-90.79" font-family="Times,serif" font-size="14.00">proc&#45;macro2</text>
</g>
<!-- 45 -->
<g id="node46" class="node">
<title>45</title>
<ellipse fill="none" stroke="#00cd00" cx="1414.41" cy="-19.45" rx="76.54" ry="19.45"/>
<text xml:space="preserve" text-anchor="middle" x="1414.41" y="-15.9" font-family="Times,serif" font-size="14.00">unicode&#45;ident</text>
</g>
<!-- 20&#45;&gt;45 -->
<g id="edge39" class="edge">
<title>20&#45;&gt;45</title>
<path fill="none" stroke="#00cd00" d="M1414.41,-74.57C1414.41,-67.25 1414.41,-58.69 1414.41,-50.56"/>
<polygon fill="#00cd00" stroke="#00cd00" points="1417.91,-50.67 1414.41,-40.67 1410.91,-50.67 1417.91,-50.67"/>
</g>
<!-- 21 -->
<g id="node22" class="node">
<title>21</title>
<ellipse fill="none" stroke="#00cd00" cx="1414.41" cy="-169.23" rx="38.36" ry="19.45"/>
<text xml:space="preserve" text-anchor="middle" x="1414.41" y="-165.68" font-family="Times,serif" font-size="14.00">quote</text>
</g>
<!-- 21&#45;&gt;20 -->
<g id="edge40" class="edge">
<title>21&#45;&gt;20</title>
<path fill="none" stroke="#00cd00" d="M1414.41,-149.46C1414.41,-142.14 1414.41,-133.58 1414.41,-125.45"/>
<polygon fill="#00cd00" stroke="#00cd00" points="1417.91,-125.56 1414.41,-115.56 1410.91,-125.56 1417.91,-125.56"/>
</g>
<!-- 22 -->
<g id="node23" class="node">
<title>22</title>
<ellipse fill="none" stroke="#00cd00" cx="1331.41" cy="-244.12" rx="27.75" ry="19.45"/>
<text xml:space="preserve" text-anchor="middle" x="1331.41" y="-240.57" font-family="Times,serif" font-size="14.00">syn</text>
</g>
<!-- 22&#45;&gt;21 -->
<g id="edge41" class="edge">
<title>22&#45;&gt;21</title>
<path fill="none" stroke="#00cd00" stroke-dasharray="1,5" d="M1348.2,-228.37C1359.44,-218.5 1374.48,-205.29 1387.38,-193.96"/>
<polygon fill="#00cd00" stroke="#00cd00" points="1389.56,-196.7 1394.77,-187.48 1384.94,-191.45 1389.56,-196.7"/>
</g>
<!-- 46 -->
<g id="node47" class="node">
<title>46</title>
<ellipse fill="none" stroke="black" stroke-dasharray="5,2" cx="65.41" cy="-468.79" rx="65.41" ry="19.45"/>
<text xml:space="preserve" text-anchor="middle" x="65.41" y="-465.24" font-family="Times,serif" font-size="14.00">scopeguard</text>
</g>
<!-- 23&#45;&gt;46 -->
<g id="edge42" class="edge">
<title>23&#45;&gt;46</title>
<path fill="none" stroke="black" stroke-dasharray="5,2" d="M92.32,-524.29C88.47,-516.49 83.89,-507.22 79.62,-498.56"/>
<polygon fill="black" stroke="black" points="82.85,-497.21 75.28,-489.79 76.57,-500.3 82.85,-497.21"/>
</g>
<!-- 47 -->
<g id="node48" class="node">
<title>47</title>
<ellipse fill="none" stroke="#00cd00" stroke-dasharray="5,2" cx="236.41" cy="-393.9" rx="75.48" ry="19.45"/>
<text xml:space="preserve" text-anchor="middle" x="236.41" y="-390.35" font-family="Times,serif" font-size="14.00">rustc_version</text>
</g>
<!-- 24&#45;&gt;47 -->
<g id="edge43" class="edge">
<title>24&#45;&gt;47</title>
<path fill="none" stroke="#00cd00" stroke-dasharray="5,2" d="M236.41,-449.02C236.41,-441.71 236.41,-433.14 236.41,-425.01"/>
<polygon fill="#00cd00" stroke="#00cd00" points="239.91,-425.12 236.41,-415.12 232.91,-425.12 239.91,-425.12"/>
</g>
<!-- 44 -->
<g id="node45" class="node">
<title>44</title>
<ellipse fill="none" stroke="black" stroke-dasharray="5,2" cx="902.41" cy="-393.9" rx="32" ry="19.45"/>
<text xml:space="preserve" text-anchor="middle" x="902.41" y="-390.35" font-family="Times,serif" font-size="14.00">void</text>
</g>
<!-- 26&#45;&gt;44 -->
<g id="edge45" class="edge">
<title>26&#45;&gt;44</title>
<path fill="none" stroke="black" stroke-dasharray="5,2" d="M919.48,-449.02C917.11,-441.48 914.31,-432.61 911.67,-424.25"/>
<polygon fill="black" stroke="black" points="915.03,-423.28 908.69,-414.8 908.36,-425.39 915.03,-423.28"/>
</g>
<!-- 48 -->
<g id="node49" class="node">
<title>48</title>
<ellipse fill="none" stroke="black" stroke-dasharray="5,2" cx="1225.41" cy="-393.9" rx="47.38" ry="19.45"/>
<text xml:space="preserve" text-anchor="middle" x="1225.41" y="-390.35" font-family="Times,serif" font-size="14.00">nb 0.1.3</text>
</g>
<!-- 26&#45;&gt;48 -->
<g id="edge44" class="edge">
<title>26&#45;&gt;48</title>
<path fill="none" stroke="black" stroke-dasharray="5,2" d="M995.01,-454.17C1044.07,-444.1 1111.14,-429.4 1169.41,-413.35 1172.55,-412.48 1175.78,-411.54 1179.03,-410.57"/>
<polygon fill="black" stroke="black" points="1180.07,-413.91 1188.57,-407.59 1177.99,-407.22 1180.07,-413.91"/>
</g>
<!-- 49 -->
<g id="node50" class="node">
<title>49</title>
<ellipse fill="none" stroke="black" stroke-dasharray="5,2" cx="429.41" cy="-393.9" rx="33.59" ry="19.45"/>
<text xml:space="preserve" text-anchor="middle" x="429.41" y="-390.35" font-family="Times,serif" font-size="14.00">vcell</text>
</g>
<!-- 27&#45;&gt;49 -->
<g id="edge46" class="edge">
<title>27&#45;&gt;49</title>
<path fill="none" stroke="black" stroke-dasharray="5,2" d="M429.41,-449.02C429.41,-441.71 429.41,-433.14 429.41,-425.01"/>
<polygon fill="black" stroke="black" points="432.91,-425.12 429.41,-415.12 425.91,-425.12 432.91,-425.12"/>
</g>
<!-- 28&#45;&gt;22 -->
<g id="edge47" class="edge">
<title>28&#45;&gt;22</title>
<path fill="none" stroke="#00cd00" d="M1084.62,-374.73C1115.46,-355.18 1166.6,-323.65 1212.41,-299.56 1240.48,-284.8 1273.33,-269.95 1297.39,-259.49"/>
<polygon fill="#00cd00" stroke="#00cd00" points="1298.59,-262.78 1306.39,-255.61 1295.82,-256.36 1298.59,-262.78"/>
</g>
<!-- 50 -->
<g id="node51" class="node">
<title>50</title>
<ellipse fill="none" stroke="#00cd00" stroke-dasharray="5,2" cx="1264.41" cy="-468.79" rx="73.36" ry="19.45"/>
<text xml:space="preserve" text-anchor="middle" x="1264.41" y="-465.24" font-family="Times,serif" font-size="14.00">defmt&#45;parser</text>
</g>
<!-- 30&#45;&gt;50 -->
<g id="edge48" class="edge">
<title>30&#45;&gt;50</title>
<path fill="none" stroke="#00cd00" stroke-dasharray="5,2" d="M1218.8,-524.29C1225.74,-516 1234.07,-506.05 1241.7,-496.93"/>
<polygon fill="#00cd00" stroke="#00cd00" points="1244.31,-499.25 1248.05,-489.34 1238.95,-494.76 1244.31,-499.25"/>
</g>
<!-- 51 -->
<g id="node52" class="node">
<title>51</title>
<ellipse fill="none" stroke="#00cd00" stroke-dasharray="5,2" cx="1498.41" cy="-319.01" rx="100.41" ry="19.45"/>
<text xml:space="preserve" text-anchor="middle" x="1498.41" y="-315.46" font-family="Times,serif" font-size="14.00">proc&#45;macro&#45;error2</text>
</g>
<!-- 30&#45;&gt;51 -->
<g id="edge49" class="edge">
<title>30&#45;&gt;51</title>
<path fill="none" stroke="#00cd00" stroke-dasharray="5,2" d="M1256.23,-529.12C1284.54,-520.3 1319.11,-506.91 1346.41,-488.24 1403.52,-449.17 1453.87,-384.43 1479.81,-347.7"/>
<polygon fill="#00cd00" stroke="#00cd00" points="1482.47,-350.01 1485.31,-339.8 1476.72,-346.01 1482.47,-350.01"/>
</g>
<!-- 52 -->
<g id="node53" class="node">
<title>52</title>
<ellipse fill="none" stroke="#00cd00" stroke-dasharray="5,2" cx="2313.41" cy="-543.68" rx="30.41" ry="19.45"/>
<text xml:space="preserve" text-anchor="middle" x="2313.41" y="-540.13" font-family="Times,serif" font-size="14.00">litrs</text>
</g>
<!-- 32&#45;&gt;52 -->
<g id="edge50" class="edge">
<title>32&#45;&gt;52</title>
<path fill="none" stroke="#00cd00" stroke-dasharray="5,2" d="M2313.41,-598.8C2313.41,-591.49 2313.41,-582.92 2313.41,-574.79"/>
<polygon fill="#00cd00" stroke="#00cd00" points="2316.91,-574.9 2313.41,-564.9 2309.91,-574.9 2316.91,-574.9"/>
</g>
<!-- 53 -->
<g id="node54" class="node">
<title>53</title>
<ellipse fill="none" stroke="black" stroke-dasharray="5,2" cx="2517.41" cy="-543.68" rx="94.58" ry="19.45"/>
<text xml:space="preserve" text-anchor="middle" x="2517.41" y="-540.13" font-family="Times,serif" font-size="14.00">stable_deref_trait</text>
</g>
<!-- 33&#45;&gt;53 -->
<g id="edge51" class="edge">
<title>33&#45;&gt;53</title>
<path fill="none" stroke="black" stroke-dasharray="5,2" d="M2517.41,-598.8C2517.41,-591.49 2517.41,-582.92 2517.41,-574.79"/>
<polygon fill="black" stroke="black" points="2520.91,-574.9 2517.41,-564.9 2513.91,-574.9 2520.91,-574.9"/>
</g>
<!-- 34&#45;&gt;14 -->
<g id="edge52" class="edge">
<title>34&#45;&gt;14</title>
<path fill="none" stroke="black" stroke-dasharray="5,2" d="M1793.95,-598.8C1794.55,-591.49 1795.26,-582.92 1795.93,-574.79"/>
<polygon fill="black" stroke="black" points="1799.41,-575.15 1796.74,-564.9 1792.43,-574.58 1799.41,-575.15"/>
</g>
<!-- 34&#45;&gt;15 -->
<g id="edge53" class="edge">
<title>34&#45;&gt;15</title>
<path fill="none" stroke="black" stroke-dasharray="5,2" d="M1853.01,-603.38C1874.59,-595.22 1896.87,-582.57 1910.41,-563.13 1933.9,-529.39 1932.68,-406.95 1930.73,-349.79"/>
<polygon fill="black" stroke="black" points="1934.24,-350.01 1930.36,-340.15 1927.24,-350.27 1934.24,-350.01"/>
</g>
<!-- 54 -->
<g id="node55" class="node">
<title>54</title>
<ellipse fill="none" stroke="#00cd00" stroke-dasharray="5,2" cx="2367.41" cy="-319.01" rx="100.94" ry="19.45"/>
<text xml:space="preserve" text-anchor="middle" x="2367.41" y="-315.46" font-family="Times,serif" font-size="14.00">enumflags2_derive</text>
</g>
<!-- 37&#45;&gt;54 -->
<g id="edge54" class="edge">
<title>37&#45;&gt;54</title>
<path fill="none" stroke="#00cd00" stroke-dasharray="5,2" d="M2869.66,-600.94C2780.09,-550.83 2512.67,-401.26 2409.06,-343.31"/>
<polygon fill="#00cd00" stroke="#00cd00" points="2411.03,-340.4 2400.59,-338.57 2407.61,-346.51 2411.03,-340.4"/>
</g>
<!-- 38 -->
<g id="node39" class="node">
<title>38</title>
<ellipse fill="none" stroke="black" stroke-dasharray="5,2" cx="2029.41" cy="-543.68" rx="33.59" ry="19.45"/>
<text xml:space="preserve" text-anchor="middle" x="2029.41" y="-540.13" font-family="Times,serif" font-size="14.00">fugit</text>
</g>
<!-- 55 -->
<g id="node56" class="node">
<title>55</title>
<ellipse fill="none" stroke="black" stroke-dasharray="5,2" cx="2029.41" cy="-468.79" rx="27.22" ry="19.45"/>
<text xml:space="preserve" text-anchor="middle" x="2029.41" y="-465.24" font-family="Times,serif" font-size="14.00">gcd</text>
</g>
<!-- 38&#45;&gt;55 -->
<g id="edge55" class="edge">
<title>38&#45;&gt;55</title>
<path fill="none" stroke="black" stroke-dasharray="5,2" d="M2029.41,-523.91C2029.41,-516.6 2029.41,-508.03 2029.41,-499.9"/>
<polygon fill="black" stroke="black" points="2032.91,-500.01 2029.41,-490.01 2025.91,-500.01 2032.91,-500.01"/>
</g>
<!-- 39&#45;&gt;15 -->
<g id="edge57" class="edge">
<title>39&#45;&gt;15</title>
<path fill="none" stroke="black" stroke-dasharray="5,2" d="M1966.54,-598.83C1964.42,-557.87 1958.07,-457.36 1943.41,-374.45 1941.98,-366.38 1939.98,-357.75 1937.94,-349.79"/>
<polygon fill="black" stroke="black" points="1941.35,-348.97 1935.38,-340.21 1934.58,-350.78 1941.35,-348.97"/>
</g>
<!-- 39&#45;&gt;38 -->
<g id="edge56" class="edge">
<title>39&#45;&gt;38</title>
<path fill="none" stroke="black" stroke-dasharray="5,2" d="M1982.73,-599.55C1990.31,-590.65 1999.58,-579.74 2007.86,-570.01"/>
<polygon fill="black" stroke="black" points="2010.31,-572.53 2014.13,-562.65 2004.98,-568 2010.31,-572.53"/>
</g>
<!-- 42&#45;&gt;10 -->
<g id="edge58" class="edge">
<title>42&#45;&gt;10</title>
<path fill="none" stroke="black" stroke-dasharray="5,2" d="M853.41,-605.23C846.48,-603.06 839.25,-600.92 832.41,-599.13 753.9,-578.6 732.58,-580.95 653.41,-563.13 647.04,-561.69 640.37,-560.13 633.77,-558.53"/>
<polygon fill="black" stroke="black" points="634.78,-555.18 624.23,-556.2 633.11,-561.98 634.78,-555.18"/>
</g>
<!-- 42&#45;&gt;11 -->
<g id="edge59" class="edge">
<title>42&#45;&gt;11</title>
<path fill="none" stroke="black" stroke-dasharray="1,5" d="M857.98,-603.35C833.99,-592.48 800.59,-577.36 773.71,-565.19"/>
<polygon fill="black" stroke="black" points="775.32,-562.08 764.76,-561.14 772.43,-568.45 775.32,-562.08"/>
</g>
<!-- 56 -->
<g id="node57" class="node">
<title>56</title>
<ellipse fill="none" stroke="black" stroke-dasharray="5,2" cx="900.41" cy="-543.68" rx="87.68" ry="19.45"/>
<text xml:space="preserve" text-anchor="middle" x="900.41" y="-540.13" font-family="Times,serif" font-size="14.00">portable&#45;atomic</text>
</g>
<!-- 42&#45;&gt;56 -->
<g id="edge60" class="edge">
<title>42&#45;&gt;56</title>
<path fill="none" stroke="black" stroke-dasharray="1,5" d="M892.24,-598.8C893.36,-591.4 894.67,-582.73 895.91,-574.51"/>
<polygon fill="black" stroke="black" points="899.33,-575.3 897.36,-564.89 892.41,-574.25 899.33,-575.3"/>
</g>
<!-- 57 -->
<g id="node58" class="node">
<title>57</title>
<ellipse fill="none" stroke="black" stroke-dasharray="5,2" cx="1622.41" cy="-543.68" rx="55.33" ry="19.45"/>
<text xml:space="preserve" text-anchor="middle" x="1622.41" y="-540.13" font-family="Times,serif" font-size="14.00">deranged</text>
</g>
<!-- 43&#45;&gt;57 -->
<g id="edge61" class="edge">
<title>43&#45;&gt;57</title>
<path fill="none" stroke="black" stroke-dasharray="5,2" d="M1641.1,-599.18C1638.48,-591.55 1635.39,-582.52 1632.47,-574.02"/>
<polygon fill="black" stroke="black" points="1635.85,-573.08 1629.29,-564.75 1629.23,-575.35 1635.85,-573.08"/>
</g>
<!-- 58 -->
<g id="node59" class="node">
<title>58</title>
<ellipse fill="none" stroke="black" stroke-dasharray="5,2" cx="1358.41" cy="-543.68" rx="59.57" ry="19.45"/>
<text xml:space="preserve" text-anchor="middle" x="1358.41" y="-540.13" font-family="Times,serif" font-size="14.00">num&#45;conv</text>
</g>
<!-- 43&#45;&gt;58 -->
<g id="edge62" class="edge">
<title>43&#45;&gt;58</title>
<path fill="none" stroke="black" stroke-dasharray="5,2" d="M1622.43,-605.55C1616.91,-603.19 1611.03,-600.9 1605.41,-599.13 1528.03,-574.67 1505.39,-581.76 1426.41,-563.13 1422.18,-562.13 1417.81,-561.05 1413.42,-559.94"/>
<polygon fill="black" stroke="black" points="1414.58,-556.62 1404.02,-557.5 1412.82,-563.4 1414.58,-556.62"/>
</g>
<!-- 60 -->
<g id="node61" class="node">
<title>60</title>
<ellipse fill="none" stroke="black" stroke-dasharray="5,2" cx="1492.41" cy="-543.68" rx="56.92" ry="19.45"/>
<text xml:space="preserve" text-anchor="middle" x="1492.41" y="-540.13" font-family="Times,serif" font-size="14.00">time&#45;core</text>
</g>
<!-- 43&#45;&gt;60 -->
<g id="edge63" class="edge">
<title>43&#45;&gt;60</title>
<path fill="none" stroke="black" stroke-dasharray="5,2" d="M1622.16,-605.7C1598.65,-594.65 1563.15,-577.95 1535.22,-564.81"/>
<polygon fill="black" stroke="black" points="1536.83,-561.71 1526.29,-560.62 1533.85,-568.04 1536.83,-561.71"/>
</g>
<!-- 61 -->
<g id="node62" class="node">
<title>61</title>
<ellipse fill="none" stroke="#00cd00" stroke-dasharray="5,2" cx="236.41" cy="-319.01" rx="46.32" ry="19.45"/>
<text xml:space="preserve" text-anchor="middle" x="236.41" y="-315.46" font-family="Times,serif" font-size="14.00">semver</text>
</g>
<!-- 47&#45;&gt;61 -->
<g id="edge64" class="edge">
<title>47&#45;&gt;61</title>
<path fill="none" stroke="#00cd00" stroke-dasharray="5,2" d="M236.41,-374.13C236.41,-366.82 236.41,-358.25 236.41,-350.12"/>
<polygon fill="#00cd00" stroke="#00cd00" points="239.91,-350.23 236.41,-340.23 232.91,-350.23 239.91,-350.23"/>
</g>
<!-- 48&#45;&gt;15 -->
<g id="edge65" class="edge">
<title>48&#45;&gt;15</title>
<path fill="none" stroke="black" stroke-dasharray="5,2" d="M1260.04,-380.3C1267.34,-378.04 1275.07,-375.93 1282.41,-374.45 1394.35,-351.94 1734.33,-330.96 1871.3,-323.19"/>
<polygon fill="black" stroke="black" points="1871.45,-326.69 1881.24,-322.63 1871.06,-319.7 1871.45,-326.69"/>
</g>
<!-- 62 -->
<g id="node63" class="node">
<title>62</title>
<ellipse fill="none" stroke="#00cd00" stroke-dasharray="5,2" cx="1345.41" cy="-393.9" rx="54.27" ry="19.45"/>
<text xml:space="preserve" text-anchor="middle" x="1345.41" y="-390.35" font-family="Times,serif" font-size="14.00">thiserror</text>
</g>
<!-- 50&#45;&gt;62 -->
<g id="edge66" class="edge">
<title>50&#45;&gt;62</title>
<path fill="none" stroke="#00cd00" stroke-dasharray="5,2" d="M1284.43,-449.77C1294.41,-440.79 1306.64,-429.78 1317.53,-419.99"/>
<polygon fill="#00cd00" stroke="#00cd00" points="1319.68,-422.76 1324.77,-413.47 1315,-417.56 1319.68,-422.76"/>
</g>
<!-- 51&#45;&gt;22 -->
<g id="edge68" class="edge">
<title>51&#45;&gt;22</title>
<path fill="none" stroke="#00cd00" stroke-dasharray="1,5" d="M1455.26,-301.08C1429.53,-290.74 1396.35,-276.97 1367.41,-263.56 1365.93,-262.88 1364.43,-262.17 1362.92,-261.44"/>
<polygon fill="#00cd00" stroke="#00cd00" points="1364.84,-258.49 1354.33,-257.19 1361.74,-264.76 1364.84,-258.49"/>
</g>
<!-- 63 -->
<g id="node64" class="node">
<title>63</title>
<ellipse fill="none" stroke="#00cd00" stroke-dasharray="5,2" cx="1498.41" cy="-244.12" rx="121.62" ry="19.45"/>
<text xml:space="preserve" text-anchor="middle" x="1498.41" y="-240.57" font-family="Times,serif" font-size="14.00">proc&#45;macro&#45;error&#45;attr2</text>
</g>
<!-- 51&#45;&gt;63 -->
<g id="edge67" class="edge">
<title>51&#45;&gt;63</title>
<path fill="none" stroke="#00cd00" stroke-dasharray="5,2" d="M1498.41,-299.24C1498.41,-291.93 1498.41,-283.36 1498.41,-275.23"/>
<polygon fill="#00cd00" stroke="#00cd00" points="1501.91,-275.34 1498.41,-265.34 1494.91,-275.34 1501.91,-275.34"/>
</g>
<!-- 54&#45;&gt;22 -->
<g id="edge69" class="edge">
<title>54&#45;&gt;22</title>
<path fill="none" stroke="#00cd00" stroke-dasharray="5,2" d="M2270.34,-313.26C2023.37,-301.1 1389.02,-269.4 1367.41,-263.56 1365.8,-263.13 1364.18,-262.62 1362.56,-262.04"/>
<polygon fill="#00cd00" stroke="#00cd00" points="1364.09,-258.89 1353.52,-258.18 1361.34,-265.33 1364.09,-258.89"/>
</g>
<!-- 59 -->
<g id="node60" class="node">
<title>59</title>
<ellipse fill="none" stroke="black" stroke-dasharray="5,2" cx="1622.41" cy="-468.79" rx="58.51" ry="19.45"/>
<text xml:space="preserve" text-anchor="middle" x="1622.41" y="-465.24" font-family="Times,serif" font-size="14.00">powerfmt</text>
</g>
<!-- 57&#45;&gt;59 -->
<g id="edge70" class="edge">
<title>57&#45;&gt;59</title>
<path fill="none" stroke="black" stroke-dasharray="1,5" d="M1622.41,-523.91C1622.41,-516.6 1622.41,-508.03 1622.41,-499.9"/>
<polygon fill="black" stroke="black" points="1625.91,-500.01 1622.41,-490.01 1618.91,-500.01 1625.91,-500.01"/>
</g>
<!-- 64 -->
<g id="node65" class="node">
<title>64</title>
<ellipse fill="none" stroke="#00cd00" stroke-dasharray="5,2" cx="236.41" cy="-244.12" rx="80.26" ry="19.45"/>
<text xml:space="preserve" text-anchor="middle" x="236.41" y="-240.57" font-family="Times,serif" font-size="14.00">semver&#45;parser</text>
</g>
<!-- 61&#45;&gt;64 -->
<g id="edge71" class="edge">
<title>61&#45;&gt;64</title>
<path fill="none" stroke="#00cd00" stroke-dasharray="5,2" d="M236.41,-299.24C236.41,-291.93 236.41,-283.36 236.41,-275.23"/>
<polygon fill="#00cd00" stroke="#00cd00" points="239.91,-275.34 236.41,-265.34 232.91,-275.34 239.91,-275.34"/>
</g>
<!-- 65 -->
<g id="node66" class="node">
<title>65</title>
<ellipse fill="none" stroke="#00cd00" stroke-dasharray="5,2" cx="1300.41" cy="-319.01" rx="79.2" ry="19.45"/>
<text xml:space="preserve" text-anchor="middle" x="1300.41" y="-315.46" font-family="Times,serif" font-size="14.00">thiserror&#45;impl</text>
</g>
<!-- 62&#45;&gt;65 -->
<g id="edge72" class="edge">
<title>62&#45;&gt;65</title>
<path fill="none" stroke="#00cd00" stroke-dasharray="5,2" d="M1334.05,-374.51C1329.13,-366.54 1323.26,-357.03 1317.82,-348.21"/>
<polygon fill="#00cd00" stroke="#00cd00" points="1320.94,-346.61 1312.71,-339.94 1314.99,-350.29 1320.94,-346.61"/>
</g>
<!-- 63&#45;&gt;21 -->
<g id="edge73" class="edge">
<title>63&#45;&gt;21</title>
<path fill="none" stroke="#00cd00" stroke-dasharray="5,2" d="M1477.21,-224.72C1466.44,-215.38 1453.24,-203.92 1441.72,-193.92"/>
<polygon fill="#00cd00" stroke="#00cd00" points="1444.29,-191.53 1434.45,-187.62 1439.71,-196.81 1444.29,-191.53"/>
</g>
<!-- 65&#45;&gt;22 -->
<g id="edge74" class="edge">
<title>65&#45;&gt;22</title>
<path fill="none" stroke="#00cd00" stroke-dasharray="5,2" d="M1308.39,-299.24C1311.72,-291.41 1315.66,-282.14 1319.33,-273.51"/>
<polygon fill="#00cd00" stroke="#00cd00" points="1322.49,-275.04 1323.18,-264.46 1316.04,-272.3 1322.49,-275.04"/>
</g>
</g>
</svg>
